<?xml version="1.0" encoding="us-ascii" standalone="no"?><svg xmlns="http://www.w3.org/2000/svg" xmlns:xlink="http://www.w3.org/1999/xlink" contentStyleType="text/css" height="231px" preserveAspectRatio="none" style="width:1021px;height:231px;;" version="1.1" viewBox="0 0 1021 231" width="1021px" zoomAndPan="magnify"><defs/><g><!--cluster Ressources INDG--><g id="cluster_Ressources INDG"><path d="M8.5,6 L145.5,6 A3.75,3.75 0 0 1 148,8.5 L155,28.2969 L977.5,28.2969 A2.5,2.5 0 0 1 980,30.7969 L980,100.5 A2.5,2.5 0 0 1 977.5,103 L8.5,103 A2.5,2.5 0 0 1 6,100.5 L6,8.5 A2.5,2.5 0 0 1 8.5,6 " fill="none" style="stroke:#000000;stroke-width:1.5;"/><line style="stroke:#000000;stroke-width:1.5;" x1="6" x2="155" y1="28.2969" y2="28.2969"/><text fill="#000000" font-family="sans-serif" font-size="14" font-weight="bold" lengthAdjust="spacing" textLength="136" x="10" y="20.9951">Ressources INDG</text></g><!--cluster Geocat--><g id="cluster_Geocat"><path d="M130.5,127 L187.5,127 A3.75,3.75 0 0 1 190,129.5 L197,149.2969 L687.5,149.2969 A2.5,2.5 0 0 1 690,151.7969 L690,221.5 A2.5,2.5 0 0 1 687.5,224 L130.5,224 A2.5,2.5 0 0 1 128,221.5 L128,129.5 A2.5,2.5 0 0 1 130.5,127 " fill="none" style="stroke:#000000;stroke-width:1.5;"/><line style="stroke:#000000;stroke-width:1.5;" x1="128" x2="197" y1="149.2969" y2="149.2969"/><text fill="#000000" font-family="sans-serif" font-size="14" font-weight="bold" lengthAdjust="spacing" textLength="56" x="132" y="141.9951">Geocat</text></g><!--entity geoservices--><g id="elem_geoservices"><rect fill="#F1F1F1" height="46.2969" rx="2.5" ry="2.5" style="stroke:#181818;stroke-width:0.5;" width="391" x="572.5" y="41"/><rect fill="#F1F1F1" height="10" style="stroke:#181818;stroke-width:0.5;" width="15" x="943.5" y="46"/><rect fill="#F1F1F1" height="2" style="stroke:#181818;stroke-width:0.5;" width="4" x="941.5" y="48"/><rect fill="#F1F1F1" height="2" style="stroke:#181818;stroke-width:0.5;" width="4" x="941.5" y="52"/><text fill="#000000" font-family="sans-serif" font-size="14" lengthAdjust="spacing" textLength="351" x="587.5" y="73.9951">G&#233;oservices (p.ex. geodienste.ch, wms swisstopo)</text></g><!--entity geobasisdaten--><g id="elem_geobasisdaten"><rect fill="#F1F1F1" height="46.2969" rx="2.5" ry="2.5" style="stroke:#181818;stroke-width:0.5;" width="164" x="373" y="41"/><rect fill="#F1F1F1" height="10" style="stroke:#181818;stroke-width:0.5;" width="15" x="517" y="46"/><rect fill="#F1F1F1" height="2" style="stroke:#181818;stroke-width:0.5;" width="4" x="515" y="48"/><rect fill="#F1F1F1" height="2" style="stroke:#181818;stroke-width:0.5;" width="4" x="515" y="52"/><text fill="#000000" font-family="sans-serif" font-size="14" lengthAdjust="spacing" textLength="124" x="388" y="73.9951">geobasisdaten.ch</text></g><!--entity Dataset--><g id="elem_Dataset"><rect fill="#F1F1F1" height="46.2969" rx="2.5" ry="2.5" style="stroke:#181818;stroke-width:0.5;" width="315" x="22.5" y="41"/><rect fill="#F1F1F1" height="10" style="stroke:#181818;stroke-width:0.5;" width="15" x="317.5" y="46"/><rect fill="#F1F1F1" height="2" style="stroke:#181818;stroke-width:0.5;" width="4" x="315.5" y="48"/><rect fill="#F1F1F1" height="2" style="stroke:#181818;stroke-width:0.5;" width="4" x="315.5" y="52"/><text fill="#000000" font-family="sans-serif" font-size="14" lengthAdjust="spacing" textLength="275" x="37.5" y="73.9951">Dataset (p.ex. geodienste.ch, STAC API)</text></g><!--entity service--><g id="elem_service"><rect fill="#F1F1F1" height="46.2969" rx="2.5" ry="2.5" style="stroke:#181818;stroke-width:0.5;" width="154" x="520" y="162"/><rect fill="#F1F1F1" height="10" style="stroke:#181818;stroke-width:0.5;" width="15" x="654" y="167"/><rect fill="#F1F1F1" height="2" style="stroke:#181818;stroke-width:0.5;" width="4" x="652" y="169"/><rect fill="#F1F1F1" height="2" style="stroke:#181818;stroke-width:0.5;" width="4" x="652" y="173"/><text fill="#000000" font-family="sans-serif" font-size="14" lengthAdjust="spacing" textLength="114" x="535" y="194.9951">dctype='service'</text></g><!--entity model--><g id="elem_model"><rect fill="#F1F1F1" height="46.2969" rx="2.5" ry="2.5" style="stroke:#181818;stroke-width:0.5;" width="148" x="337" y="162"/><rect fill="#F1F1F1" height="10" style="stroke:#181818;stroke-width:0.5;" width="15" x="465" y="167"/><rect fill="#F1F1F1" height="2" style="stroke:#181818;stroke-width:0.5;" width="4" x="463" y="169"/><rect fill="#F1F1F1" height="2" style="stroke:#181818;stroke-width:0.5;" width="4" x="463" y="173"/><text fill="#000000" font-family="sans-serif" font-size="14" lengthAdjust="spacing" textLength="108" x="352" y="194.9951">dctype='model'</text></g><!--entity dataset--><g id="elem_dataset"><rect fill="#F1F1F1" height="46.2969" rx="2.5" ry="2.5" style="stroke:#181818;stroke-width:0.5;" width="157" x="144.5" y="162"/><rect fill="#F1F1F1" height="10" style="stroke:#181818;stroke-width:0.5;" width="15" x="281.5" y="167"/><rect fill="#F1F1F1" height="2" style="stroke:#181818;stroke-width:0.5;" width="4" x="279.5" y="169"/><rect fill="#F1F1F1" height="2" style="stroke:#181818;stroke-width:0.5;" width="4" x="279.5" y="173"/><text fill="#000000" font-family="sans-serif" font-size="14" lengthAdjust="spacing" textLength="117" x="159.5" y="194.9951">dctype='dataset'</text></g><!--entity Styles--><g id="elem_Styles"><rect fill="#FFFF00" height="46.2969" rx="2.5" ry="2.5" style="stroke:#181818;stroke-width:0.5;" width="306" x="709" y="162"/><rect fill="#FFFF00" height="10" style="stroke:#181818;stroke-width:0.5;" width="15" x="995" y="167"/><rect fill="#FFFF00" height="2" style="stroke:#181818;stroke-width:0.5;" width="4" x="993" y="169"/><rect fill="#FFFF00" height="2" style="stroke:#181818;stroke-width:0.5;" width="4" x="993" y="173"/><text fill="#000000" font-family="sans-serif" font-size="14" lengthAdjust="spacing" textLength="266" x="724" y="194.9951">Styles Collection (p.ex. OGC API Styles)</text></g><!--link Dataset to dataset--><g id="link_Dataset_dataset"><path d="M189.76,92 C196.76,111.38 206.16,137.4 213.18,156.82 " fill="none" id="Dataset-dataset" style="stroke:#181818;stroke-width:1.0;stroke-dasharray:7.0,7.0;"/><polygon fill="#181818" points="187.99,87.1,187.2897,96.9239,189.6907,91.8019,194.8127,94.2028,187.99,87.1" style="stroke:#181818;stroke-width:1.0;"/><polygon fill="#181818" points="214.91,161.61,215.6198,151.7868,213.2139,156.9065,208.0942,154.5005,214.91,161.61" style="stroke:#181818;stroke-width:1.0;"/></g><!--link geobasisdaten to model--><g id="link_geobasisdaten_model"><path d="M445.02,92 C437.85,111.38 428.23,137.4 421.05,156.82 " fill="none" id="geobasisdaten-model" style="stroke:#181818;stroke-width:1.0;stroke-dasharray:7.0,7.0;"/><polygon fill="#181818" points="446.83,87.1,439.9623,94.1594,445.0995,91.791,447.4679,96.9282,446.83,87.1" style="stroke:#181818;stroke-width:1.0;"/><polygon fill="#181818" points="419.28,161.61,426.1666,154.5691,421.0231,156.9237,418.6685,151.7801,419.28,161.61" style="stroke:#181818;stroke-width:1.0;"/></g><!--link geoservices to service--><g id="link_geoservices_service"><path d="M731.83,90.17 C702.76,110.4 662.13,138.68 633.08,158.89 " fill="none" id="geoservices-service" style="stroke:#181818;stroke-width:1.0;stroke-dasharray:7.0,7.0;"/><polygon fill="#181818" points="736.24,87.1,726.5661,88.9481,732.1332,89.952,731.1293,95.519,736.24,87.1" style="stroke:#181818;stroke-width:1.0;"/><polygon fill="#181818" points="628.88,161.81,638.5509,159.9461,632.9822,158.9513,633.977,153.3826,628.88,161.81" style="stroke:#181818;stroke-width:1.0;"/></g><!--link dataset to model--><g id="link_dataset_model"><path d="M306.78,185 C315.02,185 323.26,185 331.5,185 " fill="none" id="dataset-model" style="stroke:#181818;stroke-width:1.0;stroke-dasharray:7.0,7.0;"/><polygon fill="#181818" points="301.58,185,310.58,189,306.58,185,310.58,181,301.58,185" style="stroke:#181818;stroke-width:1.0;"/><polygon fill="#181818" points="336.63,185,327.63,181,331.63,185,327.63,189,336.63,185" style="stroke:#181818;stroke-width:1.0;"/></g><!--link model to service--><g id="link_model_service"><path d="M490.23,185 C498.35,185 506.47,185 514.58,185 " fill="none" id="model-service" style="stroke:#181818;stroke-width:1.0;stroke-dasharray:7.0,7.0;"/><polygon fill="#181818" points="485.11,185,494.11,189,490.11,185,494.11,181,485.11,185" style="stroke:#181818;stroke-width:1.0;"/><polygon fill="#181818" points="519.64,185,510.64,181,514.64,185,510.64,189,519.64,185" style="stroke:#181818;stroke-width:1.0;"/></g><!--reverse link geoservices to Styles--><g id="link_geoservices_Styles"><path d="M788.7,91.21 C805.36,112.29 828.51,141.61 844.31,161.61 " fill="none" id="geoservices-backto-Styles" style="stroke:#181818;stroke-width:1.0;stroke-dasharray:7.0,7.0;"/><polygon fill="#181818" points="785.46,87.1,787.9119,96.6388,788.5642,91.0196,794.1834,91.672,785.46,87.1" style="stroke:#181818;stroke-width:1.0;"/></g><!--link service to Styles--><g id="link_service_Styles"><path d="M679.29,185 C687.49,185 695.68,185 703.88,185 " fill="none" id="service-Styles" style="stroke:#181818;stroke-width:1.0;stroke-dasharray:7.0,7.0;"/><polygon fill="#181818" points="674.12,185,683.12,189,679.12,185,683.12,181,674.12,185" style="stroke:#181818;stroke-width:1.0;"/><polygon fill="#181818" points="708.98,185,699.98,181,703.98,185,699.98,189,708.98,185" style="stroke:#181818;stroke-width:1.0;"/></g><!--SRC=[TL3DIiGm4BxdAS9wg8Ba2LGekr3sek9waU8X9aCtcEs4JhGkuWFv7BwOQPEq5TPBoCptCz-Ca-fLDi1N3q24Rvq2ujlRJRNwP7Nryuq4tRiPckTEm8VW3Q0sq987eVQNl3yGfzuGUNHuySmb3OmiOdKeNYGPqj936nIPCJTPlP5U4lX_9kmUopKlxxVHF77P5tCfU0Mef0zfjV971zT56bwC_5JCw04rs8YDtndHqJfYUffJx_pHXltNQ2qeRx3DGU-gCHYFX9WlaS-Um5hiML66eoeZ1ncnlEYLqDYtucQQykSWCnm3BkuvGtalFLbsfjdxIJI-Ysxcdp1BcLdgBqGH-0K0]--></g></svg>