<?xml version="1.0" encoding="us-ascii" standalone="no"?>
<svg xmlns="http://www.w3.org/2000/svg" xmlns:xlink="http://www.w3.org/1999/xlink" contentStyleType="text/css" height="231" preserveAspectRatio="none" style="width:987px;height:231px;;" version="1.1" viewBox="0 0 987 231" width="987px" zoomAndPan="magnify">
  <defs/>
  <rect width="100%" height="100%" fill="white"/> <!-- This is the white background -->
  <g>
    <svg xmlns="http://www.w3.org/2000/svg" xmlns:xlink="http://www.w3.org/1999/xlink" contentStyleType="text/css" height="231px" preserveAspectRatio="none" style="width:987px;height:231px;;" version="1.1" viewBox="0 0 987 231" width="987px" zoomAndPan="magnify"><defs/><g><!--cluster Ressources--><g id="cluster_Ressources"><path d="M8.5,6 L145.5,6 A3.75,3.75 0 0 1 148,8.5 L155,28.2969 L977.5,28.2969 A2.5,2.5 0 0 1 980,30.7969 L980,100.5 A2.5,2.5 0 0 1 977.5,103 L8.5,103 A2.5,2.5 0 0 1 6,100.5 L6,8.5 A2.5,2.5 0 0 1 8.5,6 " fill="none" style="stroke:#000000;stroke-width:1.5;"/><line style="stroke:#000000;stroke-width:1.5;" x1="6" x2="155" y1="28.2969" y2="28.2969"/><text fill="#000000" font-family="sans-serif" font-size="14" font-weight="bold" lengthAdjust="spacing" textLength="136" x="10" y="20.9951">Ressources INDG</text></g><!--cluster Geocat--><g id="cluster_Geocat"><path d="M167.5,127 L224.5,127 A3.75,3.75 0 0 1 227,129.5 L234,149.2969 L738.5,149.2969 A2.5,2.5 0 0 1 741,151.7969 L741,221.5 A2.5,2.5 0 0 1 738.5,224 L167.5,224 A2.5,2.5 0 0 1 165,221.5 L165,129.5 A2.5,2.5 0 0 1 167.5,127 " fill="none" style="stroke:#000000;stroke-width:1.5;"/><line style="stroke:#000000;stroke-width:1.5;" x1="165" x2="234" y1="149.2969" y2="149.2969"/><text fill="#000000" font-family="sans-serif" font-size="14" font-weight="bold" lengthAdjust="spacing" textLength="56" x="169" y="141.9951">Geocat</text></g><!--entity geoservices--><g id="elem_geoservices"><rect fill="#F1F1F1" height="46.2969" rx="2.5" ry="2.5" style="stroke:#181818;stroke-width:0.5;" width="391" x="572.5" y="41"/><rect fill="#F1F1F1" height="10" style="stroke:#181818;stroke-width:0.5;" width="15" x="943.5" y="46"/><rect fill="#F1F1F1" height="2" style="stroke:#181818;stroke-width:0.5;" width="4" x="941.5" y="48"/><rect fill="#F1F1F1" height="2" style="stroke:#181818;stroke-width:0.5;" width="4" x="941.5" y="52"/><text fill="#000000" font-family="sans-serif" font-size="14" lengthAdjust="spacing" textLength="351" x="587.5" y="73.9951">G&#233;oservices (p.ex. geodienste.ch, wms swisstopo)</text></g><!--entity geobasisdaten--><g id="elem_geobasisdaten"><rect fill="#F1F1F1" height="46.2969" rx="2.5" ry="2.5" style="stroke:#181818;stroke-width:0.5;" width="164" x="373" y="41"/><rect fill="#F1F1F1" height="10" style="stroke:#181818;stroke-width:0.5;" width="15" x="517" y="46"/><rect fill="#F1F1F1" height="2" style="stroke:#181818;stroke-width:0.5;" width="4" x="515" y="48"/><rect fill="#F1F1F1" height="2" style="stroke:#181818;stroke-width:0.5;" width="4" x="515" y="52"/><text fill="#000000" font-family="sans-serif" font-size="14" lengthAdjust="spacing" textLength="124" x="388" y="73.9951">geobasisdaten.ch</text></g><!--entity Dataset--><g id="elem_Dataset"><rect fill="#F1F1F1" height="46.2969" rx="2.5" ry="2.5" style="stroke:#181818;stroke-width:0.5;" width="315" x="22.5" y="41"/><rect fill="#F1F1F1" height="10" style="stroke:#181818;stroke-width:0.5;" width="15" x="317.5" y="46"/><rect fill="#F1F1F1" height="2" style="stroke:#181818;stroke-width:0.5;" width="4" x="315.5" y="48"/><rect fill="#F1F1F1" height="2" style="stroke:#181818;stroke-width:0.5;" width="4" x="315.5" y="52"/><text fill="#000000" font-family="sans-serif" font-size="14" lengthAdjust="spacing" textLength="275" x="37.5" y="73.9951">Dataset (p.ex. geodienste.ch, STAC API)</text></g><!--entity dataset--><g id="elem_dataset"><rect fill="#F1F1F1" height="46.2969" rx="2.5" ry="2.5" style="stroke:#181818;stroke-width:0.5;" width="162" x="181" y="162"/><rect fill="#F1F1F1" height="10" style="stroke:#181818;stroke-width:0.5;" width="15" x="323" y="167"/><rect fill="#F1F1F1" height="2" style="stroke:#181818;stroke-width:0.5;" width="4" x="321" y="169"/><rect fill="#F1F1F1" height="2" style="stroke:#181818;stroke-width:0.5;" width="4" x="321" y="173"/><text fill="#000000" font-family="sans-serif" font-size="14" lengthAdjust="spacing" textLength="122" x="196" y="194.9951">dc:type='dataset'</text></g><!--entity model--><g id="elem_model"><rect fill="#F1F1F1" height="46.2969" rx="2.5" ry="2.5" style="stroke:#181818;stroke-width:0.5;" width="153" x="378.5" y="162"/><rect fill="#F1F1F1" height="10" style="stroke:#181818;stroke-width:0.5;" width="15" x="511.5" y="167"/><rect fill="#F1F1F1" height="2" style="stroke:#181818;stroke-width:0.5;" width="4" x="509.5" y="169"/><rect fill="#F1F1F1" height="2" style="stroke:#181818;stroke-width:0.5;" width="4" x="509.5" y="173"/><text fill="#000000" font-family="sans-serif" font-size="14" lengthAdjust="spacing" textLength="113" x="393.5" y="194.9951">dc:type='model'</text></g><!--entity service--><g id="elem_service"><rect fill="#F1F1F1" height="46.2969" rx="2.5" ry="2.5" style="stroke:#181818;stroke-width:0.5;" width="159" x="566.5" y="162"/><rect fill="#F1F1F1" height="10" style="stroke:#181818;stroke-width:0.5;" width="15" x="705.5" y="167"/><rect fill="#F1F1F1" height="2" style="stroke:#181818;stroke-width:0.5;" width="4" x="703.5" y="169"/><rect fill="#F1F1F1" height="2" style="stroke:#181818;stroke-width:0.5;" width="4" x="703.5" y="173"/><text fill="#000000" font-family="sans-serif" font-size="14" lengthAdjust="spacing" textLength="119" x="581.5" y="194.9951">dc:type='service'</text></g><!--link geoservices to service--><g id="link_geoservices_service"><path d="M741.67,90.68 C721.28,110.57 693.16,138 672.68,157.97 " fill="none" id="geoservices-service" style="stroke:#181818;stroke-width:1.0;stroke-dasharray:7.0,7.0;"/><polygon fill="#181818" points="745.34,87.1,736.0985,90.5052,741.7548,90.5852,741.6748,96.2415,745.34,87.1" style="stroke:#181818;stroke-width:1.0;"/><polygon fill="#181818" points="668.95,161.61,678.1776,158.1675,672.5211,158.1104,672.5782,152.4538,668.95,161.61" style="stroke:#181818;stroke-width:1.0;"/></g><!--link Dataset to dataset--><g id="link_Dataset_dataset"><path d="M198.24,91.47 C211.74,111.06 230.05,137.63 243.59,157.28 " fill="none" id="Dataset-dataset" style="stroke:#181818;stroke-width:1.0;stroke-dasharray:7.0,7.0;"/><polygon fill="#181818" points="195.23,87.1,197.0326,96.7825,198.0626,91.2202,203.6249,92.2503,195.23,87.1" style="stroke:#181818;stroke-width:1.0;"/><polygon fill="#181818" points="246.57,161.61,244.7603,151.9288,243.7343,157.4919,238.1713,156.4659,246.57,161.61" style="stroke:#181818;stroke-width:1.0;"/></g><!--link geobasisdaten to model--><g id="link_geobasisdaten_model"><path d="M455,92.27 C455,111.46 455,137.07 455,156.35 " fill="none" id="geobasisdaten-model" style="stroke:#181818;stroke-width:1.0;stroke-dasharray:7.0,7.0;"/><polygon fill="#181818" points="455,87.1,451,96.1,455,92.1,459,96.1,455,87.1" style="stroke:#181818;stroke-width:1.0;"/><polygon fill="#181818" points="455,161.61,459,152.61,455,156.61,451,152.61,455,161.61" style="stroke:#181818;stroke-width:1.0;"/></g><!--link service to model--><g id="link_service_model"><path d="M561.16,185 C553.09,185 545.02,185 536.94,185 " fill="none" id="service-model" style="stroke:#181818;stroke-width:1.0;stroke-dasharray:7.0,7.0;"/><polygon fill="#181818" points="566.18,185,557.18,181,561.18,185,557.18,189,566.18,185" style="stroke:#181818;stroke-width:1.0;"/><polygon fill="#181818" points="531.85,185,540.85,189,536.85,185,540.85,181,531.85,185" style="stroke:#181818;stroke-width:1.0;"/></g><!--link model to dataset--><g id="link_model_dataset"><path d="M373.28,185 C364.96,185 356.63,185 348.3,185 " fill="none" id="model-dataset" style="stroke:#181818;stroke-width:1.0;stroke-dasharray:7.0,7.0;"/><polygon fill="#181818" points="378.47,185,369.47,181,373.47,185,369.47,189,378.47,185" style="stroke:#181818;stroke-width:1.0;"/><polygon fill="#181818" points="343.04,185,352.04,189,348.04,185,352.04,181,343.04,185" style="stroke:#181818;stroke-width:1.0;"/></g><!--SRC=[RL3DIWCn4BxdAOPUreBa2LfXiR3q8bAzBHvYCco3TYViZ6vByO5y3b_Ck9lijk0b9FFzPeAnRwP1MEoGcJuwYmpRXqsrEAjwOyGm2jm4ZKSD3PBpsBAWjljRU7ekxw5yt2vVm30ahgeZwzMmPsS4sqWSqAkXggkVRsBiFlrVsl_k_O61Uyyi56YPJR98VQcGYbT8raXiwwoS0guBDpOf1etBjJ9w88Vl8pPSPoHvZrXwn9oYZ7knteYdbbLUoKexwbjzDmLS_N26nuoBvZEK8znasVbcBvDeE2-cYVyB]--></g></svg>
  </g>
</svg>
