<?xml version="1.0" encoding="us-ascii" standalone="no"?>
<svg xmlns="http://www.w3.org/2000/svg" xmlns:xlink="http://www.w3.org/1999/xlink" contentStyleType="text/css" height="165px" preserveAspectRatio="none" style="width:631px;height:165px;;" version="1.1" viewBox="0 0 631 165" width="631px" zoomAndPan="magnify">
  <defs/>
  <rect width="100%" height="100%" fill="white"/> <!-- This is the white background -->
  <g>
    <svg xmlns="http://www.w3.org/2000/svg" xmlns:xlink="http://www.w3.org/1999/xlink" contentStyleType="text/css" height="165px" preserveAspectRatio="none" style="width:631px;height:165px;;" version="1.1" viewBox="0 0 631 165" width="631px" zoomAndPan="magnify"><defs/><g><!--entity GraphicModel--><g id="elem_GraphicModel"><rect fill="#F1F1F1" height="46.2969" rx="2.5" ry="2.5" style="stroke:#181818;stroke-width:0.5;" width="199" x="7" y="7"/><rect fill="#F1F1F1" height="10" style="stroke:#181818;stroke-width:0.5;" width="15" x="186" y="12"/><rect fill="#F1F1F1" height="2" style="stroke:#181818;stroke-width:0.5;" width="4" x="184" y="14"/><rect fill="#F1F1F1" height="2" style="stroke:#181818;stroke-width:0.5;" width="4" x="184" y="18"/><text fill="#000000" font-family="sans-serif" font-size="14" lengthAdjust="spacing" textLength="159" x="22" y="39.9951">Mod&#232;le graphique (*.ili)</text></g><!--entity GraphicSignature--><g id="elem_GraphicSignature"><rect fill="#F1F1F1" height="46.2969" rx="2.5" ry="2.5" style="stroke:#181818;stroke-width:0.5;" width="221" x="241" y="7"/><rect fill="#F1F1F1" height="10" style="stroke:#181818;stroke-width:0.5;" width="15" x="442" y="12"/><rect fill="#F1F1F1" height="2" style="stroke:#181818;stroke-width:0.5;" width="4" x="440" y="14"/><rect fill="#F1F1F1" height="2" style="stroke:#181818;stroke-width:0.5;" width="4" x="440" y="18"/><text fill="#000000" font-family="sans-serif" font-size="14" lengthAdjust="spacing" textLength="181" x="256" y="39.9951">Signature graphique (*.xtf)</text></g><!--entity PolylineSign--><g id="elem_PolylineSign"><rect fill="#F1F1F1" height="46.2969" rx="2.5" ry="2.5" style="stroke:#181818;stroke-width:0.5;" width="122" x="56.5" y="113"/><rect fill="#F1F1F1" height="10" style="stroke:#181818;stroke-width:0.5;" width="15" x="158.5" y="118"/><rect fill="#F1F1F1" height="2" style="stroke:#181818;stroke-width:0.5;" width="4" x="156.5" y="120"/><rect fill="#F1F1F1" height="2" style="stroke:#181818;stroke-width:0.5;" width="4" x="156.5" y="124"/><text fill="#000000" font-family="sans-serif" font-size="14" lengthAdjust="spacing" textLength="82" x="71.5" y="145.9951">PolylineSign</text></g><!--entity SymbolSign--><g id="elem_SymbolSign"><rect fill="#F1F1F1" height="46.2969" rx="2.5" ry="2.5" style="stroke:#181818;stroke-width:0.5;" width="120" x="213.5" y="113"/><rect fill="#F1F1F1" height="10" style="stroke:#181818;stroke-width:0.5;" width="15" x="313.5" y="118"/><rect fill="#F1F1F1" height="2" style="stroke:#181818;stroke-width:0.5;" width="4" x="311.5" y="120"/><rect fill="#F1F1F1" height="2" style="stroke:#181818;stroke-width:0.5;" width="4" x="311.5" y="124"/><text fill="#000000" font-family="sans-serif" font-size="14" lengthAdjust="spacing" textLength="80" x="228.5" y="145.9951">SymbolSign</text></g><!--entity SurfaceSign--><g id="elem_SurfaceSign"><rect fill="#F1F1F1" height="46.2969" rx="2.5" ry="2.5" style="stroke:#181818;stroke-width:0.5;" width="122" x="368.5" y="113"/><rect fill="#F1F1F1" height="10" style="stroke:#181818;stroke-width:0.5;" width="15" x="470.5" y="118"/><rect fill="#F1F1F1" height="2" style="stroke:#181818;stroke-width:0.5;" width="4" x="468.5" y="120"/><rect fill="#F1F1F1" height="2" style="stroke:#181818;stroke-width:0.5;" width="4" x="468.5" y="124"/><text fill="#000000" font-family="sans-serif" font-size="14" lengthAdjust="spacing" textLength="82" x="383.5" y="145.9951">SurfaceSign</text></g><!--entity TextSign--><g id="elem_TextSign"><rect fill="#F1F1F1" height="46.2969" rx="2.5" ry="2.5" style="stroke:#181818;stroke-width:0.5;" width="100" x="525.5" y="113"/><rect fill="#F1F1F1" height="10" style="stroke:#181818;stroke-width:0.5;" width="15" x="605.5" y="118"/><rect fill="#F1F1F1" height="2" style="stroke:#181818;stroke-width:0.5;" width="4" x="603.5" y="120"/><rect fill="#F1F1F1" height="2" style="stroke:#181818;stroke-width:0.5;" width="4" x="603.5" y="124"/><text fill="#000000" font-family="sans-serif" font-size="14" lengthAdjust="spacing" textLength="60" x="540.5" y="145.9951">TextSign</text></g><!--reverse link GraphicModel to GraphicSignature--><g id="link_GraphicModel_GraphicSignature"><path d="M219.14,30 C226.42,30 233.7,30 240.98,30 " fill="none" id="GraphicModel-backto-GraphicSignature" style="stroke:#181818;stroke-width:1.0;"/><polygon fill="#181818" points="206.03,30,212.03,34,218.03,30,212.03,26,206.03,30" style="stroke:#181818;stroke-width:1.0;"/><text fill="#000000" font-family="sans-serif" font-size="13" lengthAdjust="spacing" textLength="23" x="210.0913" y="26.2929">1..*</text><text fill="#000000" font-family="sans-serif" font-size="13" lengthAdjust="spacing" textLength="23" x="210.1631" y="42.5421">0..*</text></g><!--reverse link GraphicSignature to PolylineSign--><g id="link_GraphicSignature_PolylineSign"><path d="M289.82,58.41 C251.49,75.45 202.87,97.06 167.05,112.98 " fill="none" id="GraphicSignature-backto-PolylineSign" style="stroke:#181818;stroke-width:1.0;"/><polygon fill="#181818" points="301.87,53.06,294.763,51.8392,290.9026,57.93,298.0096,59.1508,301.87,53.06" style="stroke:#181818;stroke-width:1.0;"/><text fill="#000000" font-family="sans-serif" font-size="13" lengthAdjust="spacing" textLength="23" x="262.4413" y="73.3178">0..*</text><text fill="#000000" font-family="sans-serif" font-size="13" lengthAdjust="spacing" textLength="23" x="154.2759" y="101.8226">0..*</text></g><!--reverse link GraphicSignature to SymbolSign--><g id="link_GraphicSignature_SymbolSign"><path d="M327.03,63.63 C314.98,79.7 300.77,98.64 290.02,112.98 " fill="none" id="GraphicSignature-backto-SymbolSign" style="stroke:#181818;stroke-width:1.0;"/><polygon fill="#181818" points="334.96,53.06,328.16,55.46,327.76,62.66,334.56,60.26,334.96,53.06" style="stroke:#181818;stroke-width:1.0;"/><text fill="#000000" font-family="sans-serif" font-size="13" lengthAdjust="spacing" textLength="23" x="304.4243" y="73.3178">0..*</text><text fill="#000000" font-family="sans-serif" font-size="13" lengthAdjust="spacing" textLength="23" x="268.3691" y="101.8226">0..*</text></g><!--reverse link GraphicSignature to SurfaceSign--><g id="link_GraphicSignature_SurfaceSign"><path d="M375.97,63.63 C388.02,79.7 402.23,98.64 412.98,112.98 " fill="none" id="GraphicSignature-backto-SurfaceSign" style="stroke:#181818;stroke-width:1.0;"/><polygon fill="#181818" points="368.04,53.06,368.44,60.26,375.24,62.66,374.84,55.46,368.04,53.06" style="stroke:#181818;stroke-width:1.0;"/><text fill="#000000" font-family="sans-serif" font-size="13" lengthAdjust="spacing" textLength="23" x="346.3945" y="73.3178">0..*</text><text fill="#000000" font-family="sans-serif" font-size="13" lengthAdjust="spacing" textLength="23" x="382.4496" y="101.8226">0..*</text></g><!--reverse link GraphicSignature to TextSign--><g id="link_GraphicSignature_TextSign"><path d="M411.02,58.63 C447.64,75.64 493.93,97.13 528.06,112.98 " fill="none" id="GraphicSignature-backto-TextSign" style="stroke:#181818;stroke-width:1.0;"/><polygon fill="#181818" points="399,53.06,402.7607,59.2128,409.8866,58.1079,406.1259,51.9551,399,53.06" style="stroke:#181818;stroke-width:1.0;"/><text fill="#000000" font-family="sans-serif" font-size="13" lengthAdjust="spacing" textLength="23" x="385.675" y="73.3178">0..*</text><text fill="#000000" font-family="sans-serif" font-size="13" lengthAdjust="spacing" textLength="23" x="494.5613" y="104.5959">0..*</text></g><!--SRC=[Y_RDJpcy8YTL8RqeiI0Zix0qLK53Ioyp9rCpLY6nMC4TB9eCL9IQmnKTd9cUbrXIMeIckg8a3KKrN1bNT41-JcLEPbugI2WMQ41bRb9-3enJMfIMc0oJ2acjA84mrHsBY_EJCnDBClFpYhcGNQ2WPAYdfwMaeALRb9cUKQAhe6G0vcFOYou0KwYb2zU3x39Yr2ESJfHgXD-8KGxpF000]--></g></svg>
  </g>
</svg>
