<?xml version="1.0" encoding="us-ascii" standalone="no"?>
<svg xmlns="http://www.w3.org/2000/svg" xmlns:xlink="http://www.w3.org/1999/xlink" contentStyleType="text/css" height="140px" preserveAspectRatio="none" style="width:625px;height:140px;;" version="1.1" viewBox="0 0 625 140" width="625px" zoomAndPan="magnify">
  <defs/>
  <rect width="100%" height="100%" fill="white"/> <!-- This is the white background -->
  <g>
    <svg xmlns="http://www.w3.org/2000/svg" xmlns:xlink="http://www.w3.org/1999/xlink" contentStyleType="text/css" height="140px" preserveAspectRatio="none" style="width:625px;height:140px;;" version="1.1" viewBox="0 0 625 140" width="625px" zoomAndPan="magnify"><defs/><g><!--entity geobasisdaten--><g id="elem_geobasisdaten"><rect fill="#F1F1F1" height="46.2969" rx="2.5" ry="2.5" style="stroke:#181818;stroke-width:0.5;" width="143" x="7" y="48"/><rect fill="#F1F1F1" height="10" style="stroke:#181818;stroke-width:0.5;" width="15" x="130" y="53"/><rect fill="#F1F1F1" height="2" style="stroke:#181818;stroke-width:0.5;" width="4" x="128" y="55"/><rect fill="#F1F1F1" height="2" style="stroke:#181818;stroke-width:0.5;" width="4" x="128" y="59"/><text fill="#000000" font-family="sans-serif" font-size="14" lengthAdjust="spacing" textLength="103" x="22" y="80.9951">geobasisdaten</text></g><!--entity CSW--><g id="elem_CSW"><rect fill="#F1F1F1" height="46.2969" rx="2.5" ry="2.5" style="stroke:#181818;stroke-width:0.5;" width="72" x="210" y="48"/><rect fill="#F1F1F1" height="10" style="stroke:#181818;stroke-width:0.5;" width="15" x="262" y="53"/><rect fill="#F1F1F1" height="2" style="stroke:#181818;stroke-width:0.5;" width="4" x="260" y="55"/><rect fill="#F1F1F1" height="2" style="stroke:#181818;stroke-width:0.5;" width="4" x="260" y="59"/><text fill="#000000" font-family="sans-serif" font-size="14" lengthAdjust="spacing" textLength="32" x="225" y="80.9951">CSW</text></g><!--entity WMS--><g id="elem_WMS"><rect fill="#F1F1F1" height="46.2969" rx="2.5" ry="2.5" style="stroke:#181818;stroke-width:0.5;" width="74" x="342" y="48"/><rect fill="#F1F1F1" height="10" style="stroke:#181818;stroke-width:0.5;" width="15" x="396" y="53"/><rect fill="#F1F1F1" height="2" style="stroke:#181818;stroke-width:0.5;" width="4" x="394" y="55"/><rect fill="#F1F1F1" height="2" style="stroke:#181818;stroke-width:0.5;" width="4" x="394" y="59"/><text fill="#000000" font-family="sans-serif" font-size="14" lengthAdjust="spacing" textLength="34" x="357" y="80.9951">WMS</text></g><!--entity GetFeatureInfo--><g id="elem_GetFeatureInfo"><rect fill="#F1F1F1" height="46.2969" rx="2.5" ry="2.5" style="stroke:#181818;stroke-width:0.5;" width="143" x="476" y="7"/><rect fill="#F1F1F1" height="10" style="stroke:#181818;stroke-width:0.5;" width="15" x="599" y="12"/><rect fill="#F1F1F1" height="2" style="stroke:#181818;stroke-width:0.5;" width="4" x="597" y="14"/><rect fill="#F1F1F1" height="2" style="stroke:#181818;stroke-width:0.5;" width="4" x="597" y="18"/><text fill="#000000" font-family="sans-serif" font-size="14" lengthAdjust="spacing" textLength="103" x="491" y="39.9951">GetFeatureInfo</text></g><!--entity GetStyles--><g id="elem_GetStyles"><rect fill="#F1F1F1" height="46.2969" rx="2.5" ry="2.5" style="stroke:#181818;stroke-width:0.5;" width="106" x="494.5" y="88"/><rect fill="#F1F1F1" height="10" style="stroke:#181818;stroke-width:0.5;" width="15" x="580.5" y="93"/><rect fill="#F1F1F1" height="2" style="stroke:#181818;stroke-width:0.5;" width="4" x="578.5" y="95"/><rect fill="#F1F1F1" height="2" style="stroke:#181818;stroke-width:0.5;" width="4" x="578.5" y="99"/><text fill="#000000" font-family="sans-serif" font-size="14" lengthAdjust="spacing" textLength="66" x="509.5" y="120.9951">GetStyles</text></g><!--link geobasisdaten to CSW--><g id="link_geobasisdaten_CSW"><path d="M150.17,71 C168.64,71 187.93,71 204.25,71 " fill="none" id="geobasisdaten-to-CSW" style="stroke:#181818;stroke-width:1.0;"/><polygon fill="#181818" points="209.67,71,200.67,67,204.67,71,200.67,75,209.67,71" style="stroke:#181818;stroke-width:1.0;"/></g><!--link CSW to WMS--><g id="link_CSW_WMS"><path d="M282.11,71 C298.86,71 319.03,71 336.54,71 " fill="none" id="CSW-to-WMS" style="stroke:#181818;stroke-width:1.0;"/><polygon fill="#181818" points="341.88,71,332.88,67,336.88,71,332.88,75,341.88,71" style="stroke:#181818;stroke-width:1.0;"/></g><!--link WMS to GetFeatureInfo--><g id="link_WMS_GetFeatureInfo"><path d="M416.13,62.1 C432.13,58.16 451.59,53.37 470.54,48.71 " fill="none" id="WMS-to-GetFeatureInfo" style="stroke:#181818;stroke-width:1.0;"/><polygon fill="#181818" points="475.87,47.39,466.1733,45.6654,471.0159,48.5892,468.0921,53.4319,475.87,47.39" style="stroke:#181818;stroke-width:1.0;"/></g><!--link WMS to GetStyles--><g id="link_WMS_GetStyles"><path d="M416.13,79.68 C437.47,84.81 464.97,91.41 489.21,97.24 " fill="none" id="WMS-to-GetStyles" style="stroke:#181818;stroke-width:1.0;"/><polygon fill="#181818" points="494.33,98.47,486.502,92.4932,489.4661,97.3113,484.648,100.2754,494.33,98.47" style="stroke:#181818;stroke-width:1.0;"/></g><!--SRC=[oqbDAr4eoLSeoapFA558oInAJIx9pC_ZYavFpKzABCuiJaaiISsBvOfs3Wu7ak6-mK3IFRN4BJMnfBGerJClBHyY45nIcPDQ7Cl5fUvON9oVd9a8CgOOtHm5NLqx1QXP81B2XvWA8Y5y3FDHfA0s0G00]--></g></svg>
  </g>
</svg>