<?xml version="1.0" encoding="us-ascii" standalone="no"?>
<svg xmlns="http://www.w3.org/2000/svg" xmlns:xlink="http://www.w3.org/1999/xlink" contentStyleType="text/css" height="377px" preserveAspectRatio="none" style="width:740px;height:377px;;" version="1.1" viewBox="0 0 740 377" width="740px" zoomAndPan="magnify">
  <defs/>
  <rect width="100%" height="100%" fill="white"/> <!-- This is the white background -->
  <g>
    <svg xmlns="http://www.w3.org/2000/svg" xmlns:xlink="http://www.w3.org/1999/xlink" contentStyleType="text/css" height="377px" preserveAspectRatio="none" style="width:740px;height:377px;;" version="1.1" viewBox="0 0 740 377" width="740px" zoomAndPan="magnify"><defs/><g><!--entity DataModel--><g id="elem_DataModel"><rect fill="#F1F1F1" height="46.2969" rx="2.5" ry="2.5" style="stroke:#181818;stroke-width:0.5;" width="221" x="7" y="113"/><rect fill="#F1F1F1" height="10" style="stroke:#181818;stroke-width:0.5;" width="15" x="208" y="118"/><rect fill="#F1F1F1" height="2" style="stroke:#181818;stroke-width:0.5;" width="4" x="206" y="120"/><rect fill="#F1F1F1" height="2" style="stroke:#181818;stroke-width:0.5;" width="4" x="206" y="124"/><text fill="#000000" font-family="sans-serif" font-size="14" lengthAdjust="spacing" textLength="181" x="22" y="145.9951">Mod&#232;les de donn&#233;es (*.ili)</text></g><!--entity StandardSymbologyModel--><g id="elem_StandardSymbologyModel"><rect fill="#F1F1F1" height="46.2969" rx="2.5" ry="2.5" style="stroke:#181818;stroke-width:0.5;" width="297" x="340" y="7"/><rect fill="#F1F1F1" height="10" style="stroke:#181818;stroke-width:0.5;" width="15" x="617" y="12"/><rect fill="#F1F1F1" height="2" style="stroke:#181818;stroke-width:0.5;" width="4" x="615" y="14"/><rect fill="#F1F1F1" height="2" style="stroke:#181818;stroke-width:0.5;" width="4" x="615" y="18"/><text fill="#000000" font-family="sans-serif" font-size="14" lengthAdjust="spacing" textLength="257" x="355" y="39.9951">Mod&#232;le Standard de Symbologie (*.ili)</text></g><!--entity GraphicSignatures--><g id="elem_GraphicSignatures"><rect fill="#F1F1F1" height="46.2969" rx="2.5" ry="2.5" style="stroke:#181818;stroke-width:0.5;" width="237" x="497" y="113"/><rect fill="#F1F1F1" height="10" style="stroke:#181818;stroke-width:0.5;" width="15" x="714" y="118"/><rect fill="#F1F1F1" height="2" style="stroke:#181818;stroke-width:0.5;" width="4" x="712" y="120"/><rect fill="#F1F1F1" height="2" style="stroke:#181818;stroke-width:0.5;" width="4" x="712" y="124"/><text fill="#000000" font-family="sans-serif" font-size="14" lengthAdjust="spacing" textLength="197" x="512" y="145.9951">Signatures graphiques (*.xtf)</text></g><!--entity GraphicModel--><g id="elem_GraphicModel"><rect fill="#F1F1F1" height="46.2969" rx="2.5" ry="2.5" style="stroke:#181818;stroke-width:0.5;" width="199" x="263" y="113"/><rect fill="#F1F1F1" height="10" style="stroke:#181818;stroke-width:0.5;" width="15" x="442" y="118"/><rect fill="#F1F1F1" height="2" style="stroke:#181818;stroke-width:0.5;" width="4" x="440" y="120"/><rect fill="#F1F1F1" height="2" style="stroke:#181818;stroke-width:0.5;" width="4" x="440" y="124"/><text fill="#000000" font-family="sans-serif" font-size="14" lengthAdjust="spacing" textLength="159" x="278" y="145.9951">Mod&#232;le graphique (*.ili)</text></g><!--entity DataSet--><g id="elem_DataSet"><rect fill="#F1F1F1" height="46.2969" rx="2.5" ry="2.5" style="stroke:#181818;stroke-width:0.5;" width="104" x="86.5" y="219"/><rect fill="#F1F1F1" height="10" style="stroke:#181818;stroke-width:0.5;" width="15" x="170.5" y="224"/><rect fill="#F1F1F1" height="2" style="stroke:#181818;stroke-width:0.5;" width="4" x="168.5" y="226"/><rect fill="#F1F1F1" height="2" style="stroke:#181818;stroke-width:0.5;" width="4" x="168.5" y="230"/><text fill="#000000" font-family="sans-serif" font-size="14" lengthAdjust="spacing" textLength="64" x="101.5" y="251.9951">Donn&#233;es</text></g><!--entity StyleSheet--><g id="elem_StyleSheet"><rect fill="#F1F1F1" height="46.2969" rx="2.5" ry="2.5" style="stroke:#181818;stroke-width:0.5;" width="231" x="247" y="219"/><rect fill="#F1F1F1" height="10" style="stroke:#181818;stroke-width:0.5;" width="15" x="458" y="224"/><rect fill="#F1F1F1" height="2" style="stroke:#181818;stroke-width:0.5;" width="4" x="456" y="226"/><rect fill="#F1F1F1" height="2" style="stroke:#181818;stroke-width:0.5;" width="4" x="456" y="230"/><text fill="#000000" font-family="sans-serif" font-size="14" lengthAdjust="spacing" textLength="191" x="262" y="251.9951">Feuille de style (*.sld,*.json)</text></g><!--entity MapRendering--><g id="elem_MapRendering"><rect fill="#F1F1F1" height="46.2969" rx="2.5" ry="2.5" style="stroke:#181818;stroke-width:0.5;" width="195" x="142" y="325"/><rect fill="#F1F1F1" height="10" style="stroke:#181818;stroke-width:0.5;" width="15" x="317" y="330"/><rect fill="#F1F1F1" height="2" style="stroke:#181818;stroke-width:0.5;" width="4" x="315" y="332"/><rect fill="#F1F1F1" height="2" style="stroke:#181818;stroke-width:0.5;" width="4" x="315" y="336"/><text fill="#000000" font-family="sans-serif" font-size="14" lengthAdjust="spacing" textLength="155" x="157" y="357.9951">Rendu cartographique</text></g><!--link DataModel to DataSet--><g id="link_DataModel_DataSet"><path d="M121.95,159.06 C125.18,175.05 129.57,196.78 133.02,213.84 " fill="none" id="DataModel-to-DataSet" style="stroke:#181818;stroke-width:1.0;"/><polygon fill="#181818" points="134.05,218.98,136.1965,209.3679,133.0639,214.0782,128.3536,210.9456,134.05,218.98" style="stroke:#181818;stroke-width:1.0;"/></g><!--link DataModel to GraphicModel--><g id="link_DataModel_GraphicModel"><path d="M228.04,136 C237.95,136 247.87,136 257.78,136 " fill="none" id="DataModel-to-GraphicModel" style="stroke:#181818;stroke-width:1.0;"/><polygon fill="#181818" points="262.97,136,253.97,132,257.97,136,253.97,140,262.97,136" style="stroke:#181818;stroke-width:1.0;"/></g><!--link StandardSymbologyModel to GraphicModel--><g id="link_StandardSymbologyModel_GraphicModel"><path d="M461.78,53.06 C441.73,69.6 414.25,92.28 393.29,109.59 " fill="none" id="StandardSymbologyModel-to-GraphicModel" style="stroke:#181818;stroke-width:1.0;"/><polygon fill="#181818" points="389.18,112.98,398.6664,110.3328,393.0351,109.796,393.572,104.1646,389.18,112.98" style="stroke:#181818;stroke-width:1.0;"/></g><!--link StandardSymbologyModel to GraphicSignatures--><g id="link_StandardSymbologyModel_GraphicSignatures"><path d="M515.43,53.06 C535.72,69.67 563.57,92.47 584.73,109.81 " fill="none" id="StandardSymbologyModel-to-GraphicSignatures" style="stroke:#181818;stroke-width:1.0;stroke-dasharray:7.0,7.0;"/><polygon fill="#181818" points="588.61,112.98,584.1826,104.1824,584.7421,109.8115,579.113,110.371,588.61,112.98" style="stroke:#181818;stroke-width:1.0;"/></g><!--link GraphicModel to GraphicSignatures--><g id="link_GraphicModel_GraphicSignatures"><path d="M462.32,136 C472.08,136 481.85,136 491.62,136 " fill="none" id="GraphicModel-to-GraphicSignatures" style="stroke:#181818;stroke-width:1.0;"/><polygon fill="#181818" points="496.72,136,487.72,132,491.72,136,487.72,140,496.72,136" style="stroke:#181818;stroke-width:1.0;"/></g><!--link GraphicModel to StyleSheet--><g id="link_GraphicModel_StyleSheet"><path d="M362.5,159.06 C362.5,175.05 362.5,196.78 362.5,213.84 " fill="none" id="GraphicModel-to-StyleSheet" style="stroke:#181818;stroke-width:1.0;"/><polygon fill="#181818" points="362.5,218.98,366.5,209.98,362.5,213.98,358.5,209.98,362.5,218.98" style="stroke:#181818;stroke-width:1.0;"/></g><!--link GraphicSignatures to StyleSheet--><g id="link_GraphicSignatures_StyleSheet"><path d="M561.85,159.06 C520.5,176.05 463.42,199.52 420.92,216.98 " fill="none" id="GraphicSignatures-to-StyleSheet" style="stroke:#181818;stroke-width:1.0;"/><polygon fill="#181818" points="416.08,218.98,425.9251,219.252,420.7034,217.0763,422.8791,211.8545,416.08,218.98" style="stroke:#181818;stroke-width:1.0;"/></g><!--link StyleSheet to MapRendering--><g id="link_StyleSheet_MapRendering"><path d="M336.41,265.06 C316.85,281.6 290.02,304.28 269.55,321.59 " fill="none" id="StyleSheet-to-MapRendering" style="stroke:#181818;stroke-width:1.0;"/><polygon fill="#181818" points="265.55,324.98,275.0038,322.2185,269.3664,321.7496,269.8352,316.1123,265.55,324.98" style="stroke:#181818;stroke-width:1.0;"/></g><!--link DataSet to MapRendering--><g id="link_DataSet_MapRendering"><path d="M159.92,265.06 C175.85,281.46 197.65,303.91 214.4,321.16 " fill="none" id="DataSet-to-MapRendering" style="stroke:#181818;stroke-width:1.0;"/><polygon fill="#181818" points="218.11,324.98,214.7048,315.7385,214.6248,321.3948,208.9685,321.3148,218.11,324.98" style="stroke:#181818;stroke-width:1.0;"/></g><!--SRC=[ZP0nJiGm54Hxdy8Ti69pX9MGLb1jWyk8uXCRvoFZlzYE83U2S-p5SBAE4oifwApCcp-JgKyaBpz6UIuLbsJjvJU-RtSL6hnxuU3v4G94I1bM9vQB05Q2auD7z1-lP4YZAbmJCibzEY5GMmYTYo7QmRd5p-wQzntUhiwdyNCpWtDkTXHHoP02ZkaVSdUX0giVLOScNeY5VUZDUC0RUR-htZtPgN8KHAi6_bbPsV46NA0SEa8dE0-QScWrktdmdXg4W6GzoqFnlQGlkp_a-8NYKBSXIaNfxR7ocV-mrS1MX_Lwd2tjgmABcKikPIz6MP_UWEPdLel9qYIRuXy0]--></g></svg>
  </g>
</svg>
