<?xml version="1.0" encoding="us-ascii" standalone="no"?>
<svg xmlns="http://www.w3.org/2000/svg" xmlns:xlink="http://www.w3.org/1999/xlink" contentStyleType="text/css" height="278px" preserveAspectRatio="none" style="width:696px;height:278px;;" version="1.1" viewBox="0 0 696 278" width="696px" zoomAndPan="magnify">
  <defs/>
  <rect width="100%" height="100%" fill="white"/> <!-- This is the white background -->
  <g>
    <svg xmlns="http://www.w3.org/2000/svg" xmlns:xlink="http://www.w3.org/1999/xlink" contentStyleType="text/css" height="278px" preserveAspectRatio="none" style="width:696px;height:278px;;" version="1.1" viewBox="0 0 696 278" width="696px" zoomAndPan="magnify"><defs/><g><!--class FeatureTypeStyle--><g id="elem_FeatureTypeStyle"><rect codeLine="1" fill="#F1F1F1" height="48" id="FeatureTypeStyle" rx="2.5" ry="2.5" style="stroke:#181818;stroke-width:0.5;" width="152" x="265.5" y="7"/><ellipse cx="280.5" cy="23" fill="#ADD1B2" rx="11" ry="11" style="stroke:#181818;stroke-width:1.0;"/><path d="M283.4688,28.6406 Q282.8906,28.9375 282.25,29.0781 Q281.6094,29.2344 280.9063,29.2344 Q278.4063,29.2344 277.0781,27.5938 Q275.7656,25.9375 275.7656,22.8125 Q275.7656,19.6875 277.0781,18.0313 Q278.4063,16.375 280.9063,16.375 Q281.6094,16.375 282.25,16.5313 Q282.9063,16.6875 283.4688,16.9844 L283.4688,19.7031 Q282.8438,19.125 282.25,18.8594 Q281.6563,18.5781 281.0313,18.5781 Q279.6875,18.5781 279,19.6563 Q278.3125,20.7188 278.3125,22.8125 Q278.3125,24.9063 279,25.9844 Q279.6875,27.0469 281.0313,27.0469 Q281.6563,27.0469 282.25,26.7813 Q282.8438,26.5 283.4688,25.9219 L283.4688,28.6406 Z " fill="#000000"/><text fill="#000000" font-family="sans-serif" font-size="14" lengthAdjust="spacing" textLength="120" x="294.5" y="27.8467">FeatureTypeStyle</text><line style="stroke:#181818;stroke-width:0.5;" x1="266.5" x2="416.5" y1="39" y2="39"/><line style="stroke:#181818;stroke-width:0.5;" x1="266.5" x2="416.5" y1="47" y2="47"/></g><!--class Rule--><g id="elem_Rule"><rect codeLine="2" fill="#F1F1F1" height="48" id="Rule" rx="2.5" ry="2.5" style="stroke:#181818;stroke-width:0.5;" width="63" x="310" y="115"/><ellipse cx="325" cy="131" fill="#ADD1B2" rx="11" ry="11" style="stroke:#181818;stroke-width:1.0;"/><path d="M327.9688,136.6406 Q327.3906,136.9375 326.75,137.0781 Q326.1094,137.2344 325.4063,137.2344 Q322.9063,137.2344 321.5781,135.5938 Q320.2656,133.9375 320.2656,130.8125 Q320.2656,127.6875 321.5781,126.0313 Q322.9063,124.375 325.4063,124.375 Q326.1094,124.375 326.75,124.5313 Q327.4063,124.6875 327.9688,124.9844 L327.9688,127.7031 Q327.3438,127.125 326.75,126.8594 Q326.1563,126.5781 325.5313,126.5781 Q324.1875,126.5781 323.5,127.6563 Q322.8125,128.7188 322.8125,130.8125 Q322.8125,132.9063 323.5,133.9844 Q324.1875,135.0469 325.5313,135.0469 Q326.1563,135.0469 326.75,134.7813 Q327.3438,134.5 327.9688,133.9219 L327.9688,136.6406 Z " fill="#000000"/><text fill="#000000" font-family="sans-serif" font-size="14" lengthAdjust="spacing" textLength="31" x="339" y="135.8467">Rule</text><line style="stroke:#181818;stroke-width:0.5;" x1="311" x2="372" y1="147" y2="147"/><line style="stroke:#181818;stroke-width:0.5;" x1="311" x2="372" y1="155" y2="155"/></g><!--class Filter--><g id="elem_Filter"><rect codeLine="3" fill="#F1F1F1" height="48" id="Filter" rx="2.5" ry="2.5" style="stroke:#181818;stroke-width:0.5;" width="65" x="210" y="115"/><ellipse cx="225" cy="131" fill="#ADD1B2" rx="11" ry="11" style="stroke:#181818;stroke-width:1.0;"/><path d="M227.9688,136.6406 Q227.3906,136.9375 226.75,137.0781 Q226.1094,137.2344 225.4063,137.2344 Q222.9063,137.2344 221.5781,135.5938 Q220.2656,133.9375 220.2656,130.8125 Q220.2656,127.6875 221.5781,126.0313 Q222.9063,124.375 225.4063,124.375 Q226.1094,124.375 226.75,124.5313 Q227.4063,124.6875 227.9688,124.9844 L227.9688,127.7031 Q227.3438,127.125 226.75,126.8594 Q226.1563,126.5781 225.5313,126.5781 Q224.1875,126.5781 223.5,127.6563 Q222.8125,128.7188 222.8125,130.8125 Q222.8125,132.9063 223.5,133.9844 Q224.1875,135.0469 225.5313,135.0469 Q226.1563,135.0469 226.75,134.7813 Q227.3438,134.5 227.9688,133.9219 L227.9688,136.6406 Z " fill="#000000"/><text fill="#000000" font-family="sans-serif" font-size="14" lengthAdjust="spacing" textLength="33" x="239" y="135.8467">Filter</text><line style="stroke:#181818;stroke-width:0.5;" x1="211" x2="274" y1="147" y2="147"/><line style="stroke:#181818;stroke-width:0.5;" x1="211" x2="274" y1="155" y2="155"/></g><!--class LineSymbolizer--><g id="elem_LineSymbolizer"><rect codeLine="4" fill="#F1F1F1" height="48" id="LineSymbolizer" rx="2.5" ry="2.5" style="stroke:#181818;stroke-width:0.5;" width="135" x="7" y="223"/><ellipse cx="22" cy="239" fill="#ADD1B2" rx="11" ry="11" style="stroke:#181818;stroke-width:1.0;"/><path d="M24.9688,244.6406 Q24.3906,244.9375 23.75,245.0781 Q23.1094,245.2344 22.4063,245.2344 Q19.9063,245.2344 18.5781,243.5938 Q17.2656,241.9375 17.2656,238.8125 Q17.2656,235.6875 18.5781,234.0313 Q19.9063,232.375 22.4063,232.375 Q23.1094,232.375 23.75,232.5313 Q24.4063,232.6875 24.9688,232.9844 L24.9688,235.7031 Q24.3438,235.125 23.75,234.8594 Q23.1563,234.5781 22.5313,234.5781 Q21.1875,234.5781 20.5,235.6563 Q19.8125,236.7188 19.8125,238.8125 Q19.8125,240.9063 20.5,241.9844 Q21.1875,243.0469 22.5313,243.0469 Q23.1563,243.0469 23.75,242.7813 Q24.3438,242.5 24.9688,241.9219 L24.9688,244.6406 Z " fill="#000000"/><text fill="#000000" font-family="sans-serif" font-size="14" lengthAdjust="spacing" textLength="103" x="36" y="243.8467">LineSymbolizer</text><line style="stroke:#181818;stroke-width:0.5;" x1="8" x2="141" y1="255" y2="255"/><line style="stroke:#181818;stroke-width:0.5;" x1="8" x2="141" y1="263" y2="263"/></g><!--class PointSymbolizer--><g id="elem_PointSymbolizer"><rect codeLine="5" fill="#F1F1F1" height="48" id="PointSymbolizer" rx="2.5" ry="2.5" style="stroke:#181818;stroke-width:0.5;" width="142" x="177.5" y="223"/><ellipse cx="192.5" cy="239" fill="#ADD1B2" rx="11" ry="11" style="stroke:#181818;stroke-width:1.0;"/><path d="M195.4688,244.6406 Q194.8906,244.9375 194.25,245.0781 Q193.6094,245.2344 192.9063,245.2344 Q190.4063,245.2344 189.0781,243.5938 Q187.7656,241.9375 187.7656,238.8125 Q187.7656,235.6875 189.0781,234.0313 Q190.4063,232.375 192.9063,232.375 Q193.6094,232.375 194.25,232.5313 Q194.9063,232.6875 195.4688,232.9844 L195.4688,235.7031 Q194.8438,235.125 194.25,234.8594 Q193.6563,234.5781 193.0313,234.5781 Q191.6875,234.5781 191,235.6563 Q190.3125,236.7188 190.3125,238.8125 Q190.3125,240.9063 191,241.9844 Q191.6875,243.0469 193.0313,243.0469 Q193.6563,243.0469 194.25,242.7813 Q194.8438,242.5 195.4688,241.9219 L195.4688,244.6406 Z " fill="#000000"/><text fill="#000000" font-family="sans-serif" font-size="14" lengthAdjust="spacing" textLength="110" x="206.5" y="243.8467">PointSymbolizer</text><line style="stroke:#181818;stroke-width:0.5;" x1="178.5" x2="318.5" y1="255" y2="255"/><line style="stroke:#181818;stroke-width:0.5;" x1="178.5" x2="318.5" y1="263" y2="263"/></g><!--class PolygonSymbolizer--><g id="elem_PolygonSymbolizer"><rect codeLine="6" fill="#F1F1F1" height="48" id="PolygonSymbolizer" rx="2.5" ry="2.5" style="stroke:#181818;stroke-width:0.5;" width="162" x="354.5" y="223"/><ellipse cx="369.5" cy="239" fill="#ADD1B2" rx="11" ry="11" style="stroke:#181818;stroke-width:1.0;"/><path d="M372.4688,244.6406 Q371.8906,244.9375 371.25,245.0781 Q370.6094,245.2344 369.9063,245.2344 Q367.4063,245.2344 366.0781,243.5938 Q364.7656,241.9375 364.7656,238.8125 Q364.7656,235.6875 366.0781,234.0313 Q367.4063,232.375 369.9063,232.375 Q370.6094,232.375 371.25,232.5313 Q371.9063,232.6875 372.4688,232.9844 L372.4688,235.7031 Q371.8438,235.125 371.25,234.8594 Q370.6563,234.5781 370.0313,234.5781 Q368.6875,234.5781 368,235.6563 Q367.3125,236.7188 367.3125,238.8125 Q367.3125,240.9063 368,241.9844 Q368.6875,243.0469 370.0313,243.0469 Q370.6563,243.0469 371.25,242.7813 Q371.8438,242.5 372.4688,241.9219 L372.4688,244.6406 Z " fill="#000000"/><text fill="#000000" font-family="sans-serif" font-size="14" lengthAdjust="spacing" textLength="130" x="383.5" y="243.8467">PolygonSymbolizer</text><line style="stroke:#181818;stroke-width:0.5;" x1="355.5" x2="515.5" y1="255" y2="255"/><line style="stroke:#181818;stroke-width:0.5;" x1="355.5" x2="515.5" y1="263" y2="263"/></g><!--class TextSymbolizer--><g id="elem_TextSymbolizer"><rect codeLine="7" fill="#F1F1F1" height="48" id="TextSymbolizer" rx="2.5" ry="2.5" style="stroke:#181818;stroke-width:0.5;" width="137" x="552" y="223"/><ellipse cx="567" cy="239" fill="#ADD1B2" rx="11" ry="11" style="stroke:#181818;stroke-width:1.0;"/><path d="M569.9688,244.6406 Q569.3906,244.9375 568.75,245.0781 Q568.1094,245.2344 567.4063,245.2344 Q564.9063,245.2344 563.5781,243.5938 Q562.2656,241.9375 562.2656,238.8125 Q562.2656,235.6875 563.5781,234.0313 Q564.9063,232.375 567.4063,232.375 Q568.1094,232.375 568.75,232.5313 Q569.4063,232.6875 569.9688,232.9844 L569.9688,235.7031 Q569.3438,235.125 568.75,234.8594 Q568.1563,234.5781 567.5313,234.5781 Q566.1875,234.5781 565.5,235.6563 Q564.8125,236.7188 564.8125,238.8125 Q564.8125,240.9063 565.5,241.9844 Q566.1875,243.0469 567.5313,243.0469 Q568.1563,243.0469 568.75,242.7813 Q569.3438,242.5 569.9688,241.9219 L569.9688,244.6406 Z " fill="#000000"/><text fill="#000000" font-family="sans-serif" font-size="14" lengthAdjust="spacing" textLength="105" x="581" y="243.8467">TextSymbolizer</text><line style="stroke:#181818;stroke-width:0.5;" x1="553" x2="688" y1="255" y2="255"/><line style="stroke:#181818;stroke-width:0.5;" x1="553" x2="688" y1="263" y2="263"/></g><!--reverse link FeatureTypeStyle to Rule--><g id="link_FeatureTypeStyle_Rule"><path codeLine="9" d="M341.5,68.34 C341.5,83.68 341.5,101.1 341.5,114.68 " fill="none" id="FeatureTypeStyle-backto-Rule" style="stroke:#181818;stroke-width:1.0;"/><polygon fill="#181818" points="341.5,55,337.5,61,341.5,67,345.5,61,341.5,55" style="stroke:#181818;stroke-width:1.0;"/><text fill="#000000" font-family="sans-serif" font-size="13" lengthAdjust="spacing" textLength="8" x="332.475" y="75.1558">1</text><text fill="#000000" font-family="sans-serif" font-size="13" lengthAdjust="spacing" textLength="23" x="315.6969" y="104.007">1..*</text></g><!--link Filter to Rule--><g id="link_Filter_Rule"><path codeLine="10" d="M275.37,139 C282.49,139 289.61,139 296.73,139 " fill="none" id="Filter-to-Rule" style="stroke:#181818;stroke-width:1.0;"/><polygon fill="#181818" points="309.99,139,303.99,135,297.99,139,303.99,143,309.99,139" style="stroke:#181818;stroke-width:1.0;"/><text fill="#000000" font-family="sans-serif" font-size="13" lengthAdjust="spacing" textLength="23" x="282.9961" y="134.7892">0..*</text><text fill="#000000" font-family="sans-serif" font-size="13" lengthAdjust="spacing" textLength="8" x="293.7783" y="134.3479">1</text></g><!--reverse link Rule to PointSymbolizer--><g id="link_Rule_PointSymbolizer"><path codeLine="11" d="M312.47,173.08 C298.36,189.17 281.73,208.13 268.96,222.68 " fill="none" id="Rule-backto-PointSymbolizer" style="stroke:#181818;stroke-width:1.0;"/><polygon fill="#181818" points="321.32,163,314.3563,164.8728,313.4067,172.0211,320.3704,170.1483,321.32,163" style="stroke:#181818;stroke-width:1.0;"/><text fill="#000000" font-family="sans-serif" font-size="13" lengthAdjust="spacing" textLength="23" x="290.202" y="183.1558">0..*</text><text fill="#000000" font-family="sans-serif" font-size="13" lengthAdjust="spacing" textLength="23" x="248.144" y="212.007">0..*</text></g><!--reverse link Rule to LineSymbolizer--><g id="link_Rule_LineSymbolizer"><path codeLine="12" d="M297.84,160.69 C296.04,161.48 294.26,162.25 292.5,163 C241.43,184.67 182.58,206.92 138.92,222.92 " fill="none" id="Rule-backto-LineSymbolizer" style="stroke:#181818;stroke-width:1.0;"/><polygon fill="#181818" points="309.76,155.32,302.6464,154.1381,298.8194,160.2499,305.933,161.4318,309.76,155.32" style="stroke:#181818;stroke-width:1.0;"/><text fill="#000000" font-family="sans-serif" font-size="13" lengthAdjust="spacing" textLength="23" x="283.0377" y="154.8368">0..*</text><text fill="#000000" font-family="sans-serif" font-size="13" lengthAdjust="spacing" textLength="23" x="129.4808" y="211.9115">0..*</text></g><!--reverse link Rule to PolygonSymbolizer--><g id="link_Rule_PolygonSymbolizer"><path codeLine="13" d="M370.84,173.08 C385.11,189.17 401.92,208.13 414.82,222.68 " fill="none" id="Rule-backto-PolygonSymbolizer" style="stroke:#181818;stroke-width:1.0;"/><polygon fill="#181818" points="361.9,163,362.8887,170.143,369.8625,171.9776,368.8738,164.8346,361.9,163" style="stroke:#181818;stroke-width:1.0;"/><text fill="#000000" font-family="sans-serif" font-size="13" lengthAdjust="spacing" textLength="23" x="341.1806" y="183.1558">0..*</text><text fill="#000000" font-family="sans-serif" font-size="13" lengthAdjust="spacing" textLength="23" x="383.9761" y="212.007">0..*</text></g><!--reverse link Rule to TextSymbolizer--><g id="link_Rule_TextSymbolizer"><path codeLine="14" d="M385.42,156.69 C432.43,174.55 507.33,203 559.92,222.98 " fill="none" id="Rule-backto-TextSymbolizer" style="stroke:#181818;stroke-width:1.0;"/><polygon fill="#181818" points="373.23,152.06,377.4201,157.9288,384.4491,156.3182,380.2589,150.4494,373.23,152.06" style="stroke:#181818;stroke-width:1.0;"/><text fill="#000000" font-family="sans-serif" font-size="13" lengthAdjust="spacing" textLength="23" x="380.9303" y="150.1291">0..*</text><text fill="#000000" font-family="sans-serif" font-size="13" lengthAdjust="spacing" textLength="23" x="521.1525" y="213.1664">0..*</text></g><!--SRC=[Iyv9B2vMS4jDB2ajIWsfB4WDBgdCIULA1Wi7bSAPRfav9Qb5K8vFPbvgS6LkKdvEPXLSC20_Cwy4YsXEPNf-7ePuI6e5ic9rn-BY_EJCn9BC_BnYBdJdA2WPAYbewUe2QJqzBIM8kq04L28dDQq4A6a0beIw528D4G9hXJ3HNOb36PeFSHg6xZaS2b5z2m00]--></g></svg>
  </g>
</svg>
